<svg width="323" height="89" viewBox="0 0 323 89" fill="none" xmlns="http://www.w3.org/2000/svg">
<path d="M24.1369 67.56C19.6035 67.56 15.5235 66.6267 11.8969 64.76C8.2702 62.8933 5.41687 60.2267 3.33687 56.76C1.3102 53.24 0.296869 49.1333 0.296869 44.44C0.296869 39.7467 1.3102 35.6667 3.33687 32.2C5.41687 28.68 8.2702 25.9867 11.8969 24.12C15.5235 22.2533 19.6035 21.32 24.1369 21.32C28.6702 21.32 32.7502 22.2533 36.3769 24.12C40.0035 25.9867 42.8302 28.68 44.8569 32.2C46.9369 35.6667 47.9769 39.7467 47.9769 44.44C47.9769 49.1333 46.9369 53.24 44.8569 56.76C42.8302 60.2267 40.0035 62.8933 36.3769 64.76C32.7502 66.6267 28.6702 67.56 24.1369 67.56ZM24.1369 52.2C25.7902 52.2 27.1769 51.56 28.2969 50.28C29.4169 48.9467 29.9769 47 29.9769 44.44C29.9769 41.88 29.4169 39.96 28.2969 38.68C27.1769 37.3467 25.7902 36.68 24.1369 36.68C22.4835 36.68 21.0969 37.3467 19.9769 38.68C18.8569 39.96 18.2969 41.88 18.2969 44.44C18.2969 47 18.8302 48.9467 19.8969 50.28C21.0169 51.56 22.4302 52.2 24.1369 52.2ZM68.9162 28.04C70.0362 25.96 71.6362 24.3333 73.7162 23.16C75.8496 21.9333 78.3829 21.32 81.3162 21.32C84.8362 21.32 88.0096 22.2533 90.8362 24.12C93.6629 25.9333 95.8762 28.6 97.4762 32.12C99.1296 35.5867 99.9562 39.6933 99.9562 44.44C99.9562 49.1867 99.1296 53.32 97.4762 56.84C95.8762 60.3067 93.6629 62.9733 90.8362 64.84C88.0096 66.6533 84.8362 67.56 81.3162 67.56C78.3829 67.56 75.8496 66.9733 73.7162 65.8C71.6362 64.5733 70.0362 62.92 68.9162 60.84V88.6H51.1562V21.88H68.9162V28.04ZM81.9562 44.44C81.9562 42.04 81.3429 40.1733 80.1162 38.84C78.8896 37.5067 77.3162 36.84 75.3962 36.84C73.4762 36.84 71.9029 37.5067 70.6762 38.84C69.4496 40.1733 68.8362 42.04 68.8362 44.44C68.8362 46.84 69.4496 48.7067 70.6762 50.04C71.9029 51.3733 73.4762 52.04 75.3962 52.04C77.3162 52.04 78.8896 51.3733 80.1162 50.04C81.3429 48.7067 81.9562 46.84 81.9562 44.44ZM146.811 44.04C146.811 45.2667 146.731 46.44 146.571 47.56H118.011C118.278 51.4533 119.905 53.4 122.891 53.4C124.811 53.4 126.198 52.52 127.051 50.76H145.851C145.211 53.96 143.851 56.84 141.771 59.4C139.745 61.9067 137.158 63.9067 134.011 65.4C130.918 66.84 127.505 67.56 123.771 67.56C119.291 67.56 115.291 66.6267 111.771 64.76C108.305 62.8933 105.585 60.2267 103.611 56.76C101.691 53.24 100.731 49.1333 100.731 44.44C100.731 39.7467 101.691 35.6667 103.611 32.2C105.585 28.68 108.305 25.9867 111.771 24.12C115.291 22.2533 119.291 21.32 123.771 21.32C128.251 21.32 132.225 22.2533 135.691 24.12C139.211 25.9333 141.931 28.5467 143.851 31.96C145.825 35.3733 146.811 39.4 146.811 44.04ZM128.811 39.8C128.811 38.3067 128.331 37.1867 127.371 36.44C126.411 35.64 125.211 35.24 123.771 35.24C120.625 35.24 118.785 36.76 118.251 39.8H128.811ZM181.628 21.56C186.801 21.56 190.828 23.2933 193.708 26.76C196.641 30.2267 198.108 34.92 198.108 40.84V67H180.428V43.08C180.428 40.9467 179.841 39.2667 178.668 38.04C177.548 36.76 176.028 36.12 174.108 36.12C172.135 36.12 170.588 36.76 169.468 38.04C168.348 39.2667 167.788 40.9467 167.788 43.08V67H150.028V21.88H167.788V28.76C169.175 26.6267 171.015 24.8933 173.308 23.56C175.655 22.2267 178.428 21.56 181.628 21.56ZM212.203 44.44C212.203 39.6933 213.003 35.5867 214.603 32.12C216.256 28.6 218.496 25.9333 221.323 24.12C224.15 22.2533 227.323 21.32 230.843 21.32C233.776 21.32 236.31 21.9333 238.443 23.16C240.576 24.3333 242.203 25.96 243.323 28.04V21.88H261.003V67H243.323V60.84C242.203 62.92 240.576 64.5733 238.443 65.8C236.31 66.9733 233.776 67.56 230.843 67.56C227.323 67.56 224.15 66.6533 221.323 64.84C218.496 62.9733 216.256 60.3067 214.603 56.84C213.003 53.32 212.203 49.1867 212.203 44.44ZM243.323 44.44C243.323 42.04 242.71 40.1733 241.483 38.84C240.256 37.5067 238.683 36.84 236.763 36.84C234.843 36.84 233.27 37.5067 232.043 38.84C230.816 40.1733 230.203 42.04 230.203 44.44C230.203 46.84 230.816 48.7067 232.043 50.04C233.27 51.3733 234.843 52.04 236.763 52.04C238.683 52.04 240.256 51.3733 241.483 50.04C242.71 48.7067 243.323 46.84 243.323 44.44ZM275.538 18.28C272.445 18.28 269.965 17.4533 268.098 15.8C266.231 14.1467 265.298 12.0667 265.298 9.56C265.298 7 266.231 4.89333 268.098 3.24C269.965 1.53333 272.445 0.679996 275.538 0.679996C278.578 0.679996 281.031 1.53333 282.898 3.24C284.765 4.89333 285.698 7 285.698 9.56C285.698 12.0667 284.765 14.1467 282.898 15.8C281.031 17.4533 278.578 18.28 275.538 18.28ZM284.338 21.88V67H266.578V21.88H284.338ZM307.719 30.2C309.533 27.5867 311.746 25.5067 314.359 23.96C316.973 22.36 319.693 21.56 322.519 21.56V40.52H317.479C314.119 40.52 311.639 41.1067 310.039 42.28C308.493 43.4533 307.719 45.5333 307.719 48.52V67H289.959V21.88H307.719V30.2Z" fill="#372A55"/>
</svg>
